<svg xmlns="http://www.w3.org/2000/svg" xmlns:xlink="http://www.w3.org/1999/xlink" width="500" zoomAndPan="magnify" viewBox="0 0 375 374.999991" height="500" preserveAspectRatio="xMidYMid meet" version="1.0"><defs><clipPath id="id1"><path d="M 60.148438 59 L 315 59 L 315 318 L 60.148438 318 Z M 60.148438 59 " clip-rule="nonzero"/></clipPath></defs><g clip-path="url(#id1)"><path fill="#000000" d="M 107.347656 60.628906 L 107.730469 61.066406 C 112.902344 60.683594 117.207031 62.535156 122.269531 62.425781 C 127.605469 62.753906 133.105469 62.207031 139.097656 61.824219 L 139.527344 61.449219 C 152.273438 60.410156 166.214844 59.214844 178.742188 62.207031 C 196.65625 63.839844 213.425781 62.589844 231.832031 61.824219 C 236.839844 62.097656 241.636719 62.863281 246.535156 63.40625 L 246.535156 63.570312 C 256.445312 64.710938 267.449219 65.53125 276.921875 65.148438 C 287.21875 63.296875 298.320312 62.316406 308.890625 62.207031 C 310.359375 61.769531 311.230469 62.152344 312.589844 62.589844 C 314.492188 67.539062 313.679688 72.332031 314.171875 77.882812 C 314.226562 87.074219 315.203125 97.574219 312.589844 106.882812 C 310.574219 125.4375 306.652344 141.050781 307.90625 161.726562 L 308.125 198.5625 C 308.617188 205.417969 307.960938 214.183594 307.90625 221.257812 L 308.671875 261.246094 C 308.234375 275.394531 310.195312 289.542969 310.085938 303.359375 C 310.683594 308.039062 311.933594 312.832031 312.207031 317.453125 L 311.824219 317.835938 C 302.953125 317.070312 293.96875 314.789062 285.144531 313.917969 C 264.453125 313.535156 246.863281 314.734375 227.148438 315.710938 C 202.101562 316.148438 177.488281 306.679688 151.296875 310.003906 C 144.871094 310.113281 138.660156 311.363281 131.6875 311.199219 L 131.25 311.582031 C 109.148438 312.449219 89.378906 305.8125 68.355469 310.980469 C 65.851562 311.582031 62.972656 312.175781 60.898438 312.777344 C 60.898438 299.011719 60.898438 282.085938 60.898438 267.125 C 62.207031 256.023438 60.570312 243.78125 63.074219 233.226562 C 64.222656 222.71875 62.480469 212.058594 63.074219 201.121094 C 62.207031 185.179688 63.183594 172.226562 61.5 156.613281 C 60.140625 128.753906 66.234375 97.847656 64.601562 70.863281 L 64.820312 61.066406 C 77.78125 57.367188 93.953125 59.652344 107.347656 60.628906 " fill-opacity="1" fill-rule="nonzero"/></g><path fill="#fbc834" d="M 139.914062 64.003906 C 152.273438 62.699219 166.488281 61.121094 178.90625 64.546875 C 204.660156 68.03125 228.835938 60.738281 252.800781 66.945312 C 263.199219 66.890625 272.019531 68.84375 281.820312 66.726562 C 282.3125 66.617188 282.695312 67.210938 283.023438 66.507812 C 286.289062 66.015625 290.535156 66.015625 293.203125 65.742188 C 294.457031 65.203125 296.363281 65.203125 297.890625 64.984375 C 302.136719 64.546875 306.871094 65.039062 310.847656 64.546875 C 312.371094 73.957031 311.613281 85.113281 311.824219 95.511719 C 309.375 112.648438 306.324219 128.320312 305.347656 145.839844 C 305.675781 164.066406 304.367188 184.203125 305.949219 202.863281 C 305.566406 230.394531 305.675781 263.964844 307.308594 291.609375 C 307.089844 299.769531 308.34375 307.605469 309.265625 315.117188 C 306.761719 315.0625 304.75 314.300781 302.027344 314.300781 L 302.027344 314.136719 C 290.535156 311.519531 277.140625 311.363281 264.011719 311.582031 C 244.140625 311.902344 223.609375 315.28125 203.410156 311.792969 C 185.273438 309.292969 167.195312 305.046875 148.355469 307.875 C 130.273438 309.730469 113.664062 310.378906 95.964844 307.28125 C 85.730469 306.625 73.808594 307.226562 63.238281 310.222656 C 61.609375 300.042969 64.765625 287.746094 62.863281 276.535156 C 62.910156 266.253906 64.386719 255.097656 63.839844 244.59375 C 64.710938 234.96875 67.054688 225.714844 65.585938 215.378906 C 65.585938 201.886719 64.875 187.195312 65.039062 172.882812 C 62.425781 150.03125 64.765625 129.734375 66.015625 107.261719 C 66.617188 105.792969 66.125 103.398438 66.5625 101.601562 C 67.488281 88.4375 67.488281 77.0625 67.160156 62.589844 C 73.371094 61.175781 79.738281 61.285156 86.167969 61.066406 C 104.078125 61.558594 121.886719 66.78125 139.914062 64.003906 " fill-opacity="1" fill-rule="nonzero"/><path fill="#000000" d="M 211.085938 88.867188 C 212.554688 94.910156 218.925781 90.445312 222.851562 91.210938 C 241.308594 92.949219 258.839844 96.925781 278.285156 94.527344 C 279.589844 93.660156 282.53125 94.855469 283.183594 92.789062 C 284.496094 92.898438 284.925781 93.984375 284.980469 95.128906 C 285.960938 108.949219 283.347656 123.859375 282.804688 138.007812 C 282.09375 143.394531 281.875 148.125 281.445312 153.894531 C 282.53125 154.652344 282.804688 154.816406 282.640625 155.855469 L 281.226562 156.230469 C 281.171875 161.34375 281.984375 166.519531 282.804688 171.523438 C 284.113281 187.570312 283.949219 204.222656 281.445312 219.734375 C 278.449219 239.207031 278.722656 255.207031 280.460938 274.957031 C 280.789062 275.613281 280.734375 275.988281 280.082031 276.535156 C 267.503906 280.507812 254.160156 272.945312 240.652344 276.917969 C 233.6875 285.242188 221.703125 284.210938 211.632812 285.515625 C 206.023438 285.730469 200.796875 285.839844 195.78125 286.878906 C 192.410156 286.605469 190.5 284.644531 188.105469 282.414062 C 187.941406 283.226562 188.703125 284.152344 188.703125 285.136719 C 188.597656 286.222656 188.324219 287.417969 186.964844 287.308594 C 183.640625 287.527344 181.949219 285.136719 179.28125 283.773438 C 178.6875 285.40625 181.628906 288.503906 178.304688 289.050781 C 173.351562 289.050781 172.097656 283.9375 168.5 281.8125 C 168.335938 281 167.46875 280.289062 166.757812 279.859375 C 166.105469 281.8125 164.527344 282.898438 163.054688 283.9375 C 161.640625 284.425781 160.660156 284.644531 159.300781 284.535156 C 155.597656 286.605469 155.707031 290.957031 153.039062 293.734375 C 151.78125 294.710938 150.53125 294 149.332031 293.570312 C 147.375 291.882812 145.085938 290.792969 144.816406 288.074219 C 141.929688 287.035156 140.296875 283.773438 139.914062 280.835938 L 140.078125 276.535156 C 130.273438 278.058594 117.800781 276.644531 108.164062 273.164062 C 99.234375 272.183594 91.722656 272.78125 83.226562 274.582031 C 82.515625 274.144531 82.570312 273.378906 82.679688 272.78125 C 86.167969 272.402344 83.226562 267.9375 84.425781 265.542969 C 85.675781 258.203125 85.183594 249.386719 85.621094 241.660156 L 85.402344 222.234375 C 84.152344 221.742188 84.808594 220.65625 85.183594 219.894531 C 83.878906 209.992188 84.371094 197.640625 84.808594 187.195312 C 86.984375 167.878906 90.519531 147.636719 88.125 127.828125 C 88.289062 115.421875 86.167969 103.9375 87.148438 91.210938 C 93.679688 89.195312 101.191406 90.179688 108.546875 89.632812 C 121.722656 91.484375 135.554688 94.257812 150.476562 92.949219 C 156.6875 91.484375 163.054688 92.023438 169.320312 90.828125 C 172.367188 86.203125 177.269531 81.199219 182.660156 79.671875 C 193.386719 78.3125 203.464844 82.558594 211.085938 88.867188 " fill-opacity="1" fill-rule="nonzero"/><path fill="#000000" d="M 196.164062 82.175781 L 196.164062 82.394531 C 201.9375 84.136719 207.65625 88.601562 211.851562 93.167969 C 212.0625 93.605469 212.0625 94.472656 212.828125 94.363281 C 216.203125 101.0625 218.382812 108.347656 218.492188 116.074219 C 218.21875 125.328125 215.441406 134.738281 218.109375 143.339844 C 223.828125 151.226562 225.355469 161.34375 232.8125 167.988281 C 235.371094 169.941406 238.039062 173.265625 239.671875 176.203125 C 234.609375 173.539062 226.277344 173.75 220.667969 176.039062 C 214.839844 177.453125 209.777344 181.808594 205.585938 184.851562 C 208.144531 179.628906 205.421875 174.351562 207.164062 168.800781 C 209.449219 164.882812 210.160156 160.3125 208.144531 156.066406 C 206.617188 153.675781 203.410156 152.96875 202.425781 150.570312 C 200.6875 149.320312 200.796875 147.363281 200.304688 145.675781 C 201.773438 140.507812 204.277344 135.828125 205.203125 130.386719 C 206.132812 119.019531 204.933594 107.152344 195.570312 101.21875 C 193.277344 98.121094 194.585938 92.132812 189.6875 90.226562 C 188.050781 90.335938 186.800781 89.359375 185.382812 88.867188 C 183.695312 87.726562 186.582031 84.082031 183.042969 84.574219 C 179.445312 89.632812 173.40625 89.578125 170.894531 95.128906 C 168.664062 96.214844 170.355469 98.5 168.71875 100.023438 C 167.25 110.089844 162.242188 121.410156 166.976562 131.371094 L 167.960938 134.902344 C 166.597656 134.035156 165.777344 132.730469 164.800781 131.371094 C 160.386719 124.234375 158.320312 114.929688 161.261719 106.660156 C 163.820312 102.421875 166.652344 98.445312 169.480469 94.148438 C 170.894531 94.636719 171.277344 92.734375 171.058594 91.804688 C 173.835938 87.671875 177.703125 83.160156 182.824219 81.414062 C 187.503906 81.6875 191.863281 81.632812 196.164062 82.175781 " fill-opacity="1" fill-rule="nonzero"/><path fill="#fbcbb0" d="M 189.304688 92.1875 C 184.351562 91.375 179.664062 92.84375 175.199219 93.167969 C 177.761719 91.375 180.753906 90.609375 182.824219 87.671875 C 184.1875 90.179688 186.417969 92.023438 189.304688 92.1875 " fill-opacity="1" fill-rule="nonzero"/><path fill="#bfcfed" d="M 139.097656 95.722656 C 147.753906 97.136719 156.960938 93.984375 166.976562 93.933594 C 162.078125 101.4375 155.160156 109.378906 157.9375 119.230469 C 157.992188 119.613281 158.644531 119.996094 158.15625 120.378906 C 158.15625 120.214844 158.046875 120.105469 157.9375 119.996094 C 155.214844 121.738281 152.875 118.199219 149.714844 118.855469 C 148.683594 115.148438 144.433594 118.582031 143.613281 114.5 C 139.417969 114.28125 141.820312 107.152344 136.96875 109.222656 C 136.046875 110.089844 135.335938 109.605469 134.796875 108.621094 C 134.464844 107.863281 133.972656 106.824219 133.050781 106.660156 C 130.984375 106.882812 129.238281 108.246094 127.933594 109.816406 C 125.320312 107.808594 126.898438 105.085938 126.789062 102.578125 C 126.734375 100.789062 124.828125 101.875 124.011719 101.984375 C 123.792969 103.179688 122.214844 102.851562 121.453125 103.726562 C 120.203125 102.6875 118.566406 101.765625 117.152344 102.578125 C 115.460938 103.125 114.375 105.085938 113.449219 106.285156 C 111.105469 105.519531 111.597656 101.164062 108.328125 101.601562 C 107.019531 101.820312 105.824219 102.578125 104.625 103.179688 C 104.515625 102.3125 104.570312 101.21875 103.429688 101.007812 C 100.652344 100.460938 99.78125 105.085938 97.382812 102.578125 C 95.589844 101.65625 94.445312 103.453125 92.648438 103.179688 C 91.503906 104.046875 91.449219 106.011719 89.542969 105.519531 C 89.214844 101.601562 88.507812 97.355469 88.726562 92.949219 C 96.019531 92.132812 102.503906 92.132812 109.90625 92.1875 C 119.382812 93.441406 129.128906 95.832031 139.097656 95.722656 " fill-opacity="1" fill-rule="nonzero"/><path fill="#bfcfed" d="M 277.902344 97.082031 C 279.699219 97.410156 281.226562 96.542969 282.804688 96.324219 C 283.023438 104.484375 282.640625 113.414062 281.664062 121.574219 C 279.097656 120.425781 276.429688 121.410156 273.980469 119.996094 C 269.351562 119.449219 265.484375 116.132812 260.640625 118.035156 C 258.511719 118.582031 256.226562 118.792969 254.21875 117.871094 C 253.667969 116.671875 253.066406 114.984375 251.652344 114.117188 C 248.714844 113.570312 244.25 115.640625 243.214844 111.558594 C 243.59375 110.417969 243.429688 109.605469 242.613281 108.839844 C 240.652344 107.097656 237.277344 110.035156 235.972656 107.097656 C 236.355469 104.976562 234.773438 102.796875 233.195312 101.601562 C 231.722656 101.164062 230.527344 102.203125 230.089844 103.34375 C 229.273438 105.246094 226.660156 106.613281 226.550781 108.457031 C 224.699219 108.292969 222.03125 106.449219 220.074219 108.246094 C 219.199219 103.398438 217.460938 99.207031 215.550781 94.527344 C 216.75 93.550781 218.980469 93.984375 220.667969 93.550781 C 239.617188 95.019531 259.171875 99.75 277.902344 97.082031 " fill-opacity="1" fill-rule="nonzero"/><path fill="#fbcbb0" d="M 189.6875 94.746094 C 193.058594 93.605469 191.210938 98.773438 192.847656 100.40625 C 194.804688 102.796875 196.164062 103.78125 198.503906 105.683594 C 200.085938 109.167969 203.464844 112.59375 201.828125 116.671875 C 202.316406 124.292969 194.148438 126.796875 193.605469 134.300781 C 193.386719 138.546875 193.058594 143.558594 189.304688 145.675781 C 186.089844 146.980469 183.640625 148.398438 179.71875 147.796875 C 178.742188 147.035156 177.703125 146.601562 176.558594 146.058594 C 174.328125 143.339844 173.1875 141.160156 170.894531 138.4375 C 169.375 131.152344 165.613281 124.023438 167.359375 116.074219 C 167.46875 116.890625 167.851562 117.707031 168.5 118.035156 C 169.535156 117.328125 170.355469 116.347656 171.660156 115.914062 C 171.878906 117.21875 173.351562 117.328125 174.21875 118.035156 C 175.039062 117.871094 175.746094 116.945312 176.183594 116.296875 L 176.183594 115.09375 C 177.378906 115.09375 177.652344 116.945312 179.125 116.457031 C 179.882812 114.882812 178.6875 113.351562 177.761719 112.375 C 175.855469 111.070312 173.460938 111.507812 171.441406 112.160156 L 167.960938 113.734375 C 169.59375 108.347656 169.480469 102.257812 172.257812 97.300781 C 175.308594 95.292969 178.46875 94.910156 182.058594 94.363281 C 184.617188 94.472656 187.394531 93.984375 189.6875 94.746094 " fill-opacity="1" fill-rule="nonzero"/><path fill="#4d865e" d="M 109.6875 105.683594 C 111.269531 106.933594 112.738281 109.488281 114.8125 108.621094 C 116.117188 107.207031 116.714844 105.359375 118.128906 104.15625 C 119.546875 104.375 120.6875 106.71875 122.433594 105.902344 L 123.847656 104.703125 C 123.300781 107.097656 124.71875 109.605469 126.351562 111.558594 C 127.007812 112.210938 128.042969 111.886719 128.910156 111.992188 C 130.382812 111.234375 130.710938 109.222656 132.238281 108.839844 C 133.105469 110.089844 134.355469 111.667969 136.15625 111.558594 L 137.957031 111.015625 C 138.058594 114.226562 141.273438 114.984375 142.855469 117.273438 C 144.269531 119.722656 146.609375 118.035156 148.136719 120.214844 C 151.835938 120.050781 154.941406 123.804688 158.539062 121.574219 C 158.753906 123.3125 160.496094 125.21875 159.902344 127.234375 C 157.609375 129.136719 156.25 125.765625 153.800781 127.445312 C 151.132812 127.882812 151.242188 124.402344 148.738281 123.914062 C 147.210938 122.167969 144.214844 124.292969 143.613281 121.574219 C 143.503906 120.699219 143.128906 119.832031 142.253906 119.394531 C 139.640625 119.777344 137.792969 117.816406 135.609375 119.613281 C 134.574219 120.972656 133.816406 121.410156 132.070312 121.191406 C 130.929688 119.886719 130.054688 117.433594 127.769531 118.253906 C 127.167969 118.636719 126.40625 119.230469 125.804688 118.855469 C 124.609375 116.242188 120.960938 117.433594 120.09375 114.929688 C 117.964844 113.085938 114.757812 112.59375 112.089844 113.351562 C 109.367188 110.253906 106.207031 115.148438 103.429688 112.976562 C 101.300781 113.6875 99.289062 115.09375 97.546875 116.457031 L 96.402344 119.613281 C 95.042969 119.285156 94.496094 118.253906 93.242188 117.65625 C 92.539062 118.582031 91.011719 117.433594 90.519531 118.636719 C 90.144531 115.09375 89.542969 111.234375 89.542969 108.082031 C 90.464844 107.972656 91.230469 106.660156 92.484375 106.882812 C 93.1875 105.03125 94.445312 104.375 96.402344 104.15625 C 97.4375 105.085938 98.851562 105.683594 100.324219 105.140625 L 102.285156 103.5625 C 102.828125 104.539062 104.023438 104.867188 105.226562 104.921875 C 106.636719 104.976562 107.292969 103.289062 108.710938 103.34375 L 109.6875 105.683594 " fill-opacity="1" fill-rule="nonzero"/><path fill="#4d865e" d="M 234.609375 108.621094 C 236.621094 110.363281 238.039062 111.179688 241.253906 110.800781 C 241.363281 113.03125 243.160156 114.882812 244.789062 116.074219 C 247.355469 118.089844 253.175781 114.171875 252.800781 119.394531 C 256.117188 121.738281 260.421875 121.082031 264.011719 119.832031 C 265.375 120.214844 266.847656 119.722656 268.097656 120.972656 C 269.679688 121.136719 271.585938 121.785156 273.222656 122.332031 C 275.890625 123.53125 278.449219 123.257812 281.226562 124.132812 L 280.679688 133.324219 C 271.914062 132.777344 262.167969 132.996094 253.996094 132.941406 C 245.0625 131.207031 236.464844 131.527344 227.53125 130.386719 C 224.699219 129.734375 222.414062 129.953125 219.691406 130.167969 C 219.417969 128.375 220.230469 126.632812 220.285156 124.890625 C 223.171875 125.21875 227.09375 124.347656 230.691406 124.507812 C 237.003906 124.726562 242.011719 126.578125 248.332031 125.492188 C 258.136719 128.972656 270.28125 124.671875 279.261719 125.710938 C 279.753906 125.328125 280.515625 125.65625 280.84375 124.890625 C 278.449219 121.949219 273.605469 124.507812 270.445312 123.75 C 262.980469 124.726562 255.679688 124.507812 247.894531 123.148438 C 239.34375 124.78125 232.105469 120.863281 223.609375 122.769531 L 220.449219 122.769531 C 220.074219 118.910156 221.542969 115.046875 220.449219 110.800781 C 221.59375 110.035156 223.28125 109.378906 224.589844 110.199219 C 225.519531 110.472656 226.386719 111.070312 227.148438 111.015625 C 228.78125 109.058594 229.65625 106.660156 231.667969 105.140625 C 231.667969 104.648438 231.886719 104.046875 232.433594 103.9375 C 234.882812 103.9375 233.742188 107.152344 234.609375 108.621094 " fill-opacity="1" fill-rule="nonzero"/><path fill="#000000" d="M 199.703125 111.015625 C 200.742188 111.613281 199.921875 112.539062 199.867188 113.351562 C 198.777344 114.882812 197.035156 114.929688 195.40625 115.09375 C 194.53125 114.984375 193.550781 114.554688 192.847656 114.710938 C 193.878906 115.367188 195.351562 115.695312 195.78125 116.890625 C 195.671875 116.945312 195.507812 117.054688 195.570312 117.273438 C 194.53125 117.433594 194.207031 115.96875 193.222656 115.914062 C 192.628906 116.671875 192.191406 117.382812 191.265625 117.65625 C 190.28125 117.433594 188.105469 118.308594 187.722656 116.457031 L 186.144531 117.054688 C 185.710938 115.859375 187.558594 115.53125 188.324219 115.09375 C 189.632812 114.609375 191.320312 114.445312 192.628906 114.5 C 190.882812 113.570312 187.886719 113.25 186.144531 114.5 C 184.242188 116.1875 185.601562 119.339844 183.640625 120.808594 C 181.519531 120.378906 182.003906 117.273438 181.683594 115.695312 C 181.136719 114.28125 182.441406 112.921875 183.207031 111.992188 C 188.703125 108.675781 193.878906 113.414062 199.703125 111.015625 " fill-opacity="1" fill-rule="nonzero"/><path fill="#f7996d" d="M 199.105469 111.992188 C 199.105469 112.757812 198.613281 113.460938 197.910156 113.734375 C 193.824219 114.929688 189.46875 111.398438 185.601562 113.734375 C 184.40625 115.476562 183.640625 117.546875 183.421875 119.394531 C 182.496094 118.253906 182.769531 116.296875 182.441406 114.710938 C 186.035156 107.910156 193.441406 115.53125 199.105469 111.992188 " fill-opacity="1" fill-rule="nonzero"/><path fill="#f7996d" d="M 177.921875 114.5 C 176.667969 113.789062 173.835938 112.703125 172.421875 113.140625 C 173.945312 112.539062 175.417969 112.539062 176.941406 113.140625 C 177.433594 113.460938 177.378906 114.117188 177.921875 114.5 " fill-opacity="1" fill-rule="nonzero"/><path fill="#83a583" d="M 113.828125 114.929688 L 114.429688 114.929688 L 114.429688 115.09375 C 115.515625 115.046875 117.152344 115.046875 118.128906 115.914062 C 119.164062 119.230469 123.957031 117.21875 124.828125 120.972656 C 126.132812 121.847656 127.386719 120.378906 128.746094 119.996094 C 129.183594 121.136719 130.054688 122.441406 131.25 122.933594 C 133.214844 122.496094 136.429688 124.1875 136.96875 121.191406 C 137.191406 120.589844 138.058594 120.535156 138.714844 120.589844 C 139.261719 121.355469 140.296875 120.863281 141.054688 120.972656 C 141.601562 122.386719 142.203125 124.132812 143.832031 124.726562 L 146.554688 124.890625 C 147.046875 125.273438 147.863281 125.710938 148.519531 126.085938 C 149.167969 128.210938 151.679688 129.082031 153.800781 129.1875 C 154.886719 129.027344 155.542969 128.863281 156.578125 129.1875 C 157.015625 129.84375 158.375 129.679688 159.136719 129.40625 L 159.300781 129.1875 C 157.28125 135.554688 157.125 143.988281 157.554688 151.335938 C 157.9375 155.746094 160.386719 160.203125 160.277344 164.664062 C 157.015625 167.878906 152.65625 172.71875 147.375 173.101562 C 144.925781 173.914062 142.800781 172.175781 140.679688 173.859375 C 138.660156 173.320312 137.355469 173.046875 135.179688 172.882812 C 133.488281 170.707031 129.734375 172.335938 128.746094 169.347656 C 127.277344 167.496094 124.339844 168.855469 122.652344 168.199219 C 122.324219 169.566406 121.617188 170.542969 122.433594 171.90625 C 126.898438 173.804688 124.121094 177.667969 125.210938 181.097656 C 122.816406 182.238281 124.503906 185.179688 121.070312 185.015625 L 118.511719 185.453125 C 112.902344 188.390625 107.730469 192.472656 100.871094 192.472656 C 97.65625 196.171875 92.484375 191.761719 89.324219 195.625 L 87.148438 195.625 C 86.875 177.777344 93.242188 160.53125 91.503906 141.378906 C 91.011719 134.410156 90.792969 127.71875 90.902344 120.808594 C 91.613281 120.378906 92.320312 119.339844 93.242188 119.996094 C 93.953125 121.027344 94.933594 122.003906 96.183594 122.167969 C 100.324219 121.785156 98.367188 115.96875 102.449219 115.914062 C 103.320312 114.007812 104.789062 116.242188 106.371094 115.476562 C 107.621094 115.3125 108.328125 113.734375 109.90625 114.335938 C 110.996094 115.695312 112.410156 114.984375 113.828125 114.929688 " fill-opacity="1" fill-rule="nonzero"/><path fill="#f7996d" d="M 171.660156 114.335938 C 170.957031 114.984375 169.644531 115.804688 168.5 116.296875 C 168.554688 114.5 170.628906 114.984375 171.660156 114.335938 " fill-opacity="1" fill-rule="nonzero"/><path fill="#000000" d="M 176.183594 118.417969 L 176.777344 118.417969 C 176.722656 118.636719 176.832031 118.746094 176.941406 118.855469 C 174.980469 120.378906 172.53125 119.832031 170.464844 118.855469 L 170.683594 118.253906 C 172.476562 118.308594 174.4375 119.886719 176.183594 118.417969 " fill-opacity="1" fill-rule="nonzero"/><path fill="#000000" d="M 192.628906 118.253906 C 192.574219 118.417969 192.738281 118.527344 192.847656 118.636719 C 191.535156 119.558594 189.960938 120.152344 188.324219 119.613281 C 187.449219 118.910156 188.488281 118.691406 188.703125 118.253906 C 189.796875 119.394531 191.484375 118.527344 192.628906 118.253906 " fill-opacity="1" fill-rule="nonzero"/><path fill="#f7996d" d="M 198.339844 145.675781 C 198.613281 149.375 200.359375 153.183594 203.628906 154.492188 C 201.390625 155.527344 199.378906 157.160156 196.929688 157.589844 C 195.351562 159.226562 192.464844 159.441406 190.0625 159.007812 C 185.710938 157.425781 184.1875 152.96875 181.683594 149.757812 C 186.746094 149.539062 192.464844 148.398438 194.804688 143.339844 C 196.65625 139.367188 194.96875 134.191406 197.746094 130.386719 C 198.777344 127.71875 202.101562 126.359375 202.808594 123.3125 C 204.222656 130.824219 200.742188 138.601562 198.339844 145.675781 " fill-opacity="1" fill-rule="nonzero"/><path fill="#000000" d="M 177.324219 127.234375 C 177.105469 128.210938 175.800781 129.1875 176.558594 130.605469 C 178.03125 131.800781 180.429688 131.371094 182.222656 131.152344 C 183.097656 131.800781 184.023438 131.636719 184.78125 131.152344 C 185.929688 130.113281 185.273438 128.863281 184.40625 128.046875 C 184.351562 127.828125 184.515625 127.71875 184.617188 127.664062 C 185.546875 127.773438 185.765625 128.753906 186.363281 129.40625 C 186.253906 130.496094 185.929688 131.636719 184.78125 132.128906 C 184.1875 132.183594 183.53125 132.019531 183.042969 132.347656 C 183.207031 132.886719 182.496094 132.886719 182.222656 133.105469 C 181.191406 133.761719 181.355469 136.8125 179.5 135.285156 C 177.867188 134.136719 179.664062 131.316406 176.777344 131.746094 C 175.253906 131.316406 175.527344 129.570312 175.800781 128.429688 C 176.183594 127.828125 176.449219 127.179688 177.324219 127.234375 " fill-opacity="1" fill-rule="nonzero"/><path fill="#000000" d="M 172.859375 144.316406 C 177.488281 148.015625 177.378906 154.058594 179.882812 158.789062 C 179.9375 159.933594 179.992188 161.242188 178.90625 161.726562 C 177.378906 162.054688 175.691406 161.78125 174.382812 162.703125 C 171.660156 164.773438 173.617188 169.613281 169.699219 170.324219 C 166.8125 172.773438 166.652344 176.308594 164.800781 179.144531 C 164.253906 180.175781 164.363281 181.863281 163.21875 182.292969 C 162.296875 176.960938 163.4375 170.214844 162.625 164.445312 C 159.949219 155.527344 158.753906 146.382812 159.902344 136.859375 C 160.769531 134.683594 160.933594 132.183594 161.640625 130.007812 C 164.746094 135.066406 169.808594 139.039062 172.859375 144.316406 " fill-opacity="1" fill-rule="nonzero"/><path fill="#1b6e44" d="M 254.988281 135.195312 C 256.40625 135.742188 257.929688 136.171875 259.675781 136.007812 C 266.96875 135.085938 275.300781 136.28125 282.433594 136.171875 L 280.855469 154.019531 L 278.515625 153.636719 L 268.710938 153.425781 C 264.738281 151.246094 261.199219 154.128906 256.953125 154.183594 C 249.113281 153.480469 238.542969 153.964844 229.726562 153.800781 C 229.289062 154.074219 228.792969 154.128906 228.308594 154.183594 C 227.597656 152.441406 226.671875 150.757812 225.804688 149.125 C 222.097656 144.226562 220.898438 139.824219 221.28125 133.234375 C 222.371094 132.421875 224.113281 133.289062 225.203125 132.476562 C 235.117188 134 244.808594 134.273438 254.988281 135.195312 " fill-opacity="1" fill-rule="nonzero"/><path fill="#f7996d" d="M 180.265625 134.519531 C 179.5 134.035156 179.28125 133.105469 179.71875 132.347656 L 181.082031 132.566406 L 180.265625 134.519531 " fill-opacity="1" fill-rule="nonzero"/><path fill="#000000" d="M 188.105469 135.066406 C 186.144531 136.859375 183.859375 138.601562 181.082031 138.820312 C 179.0625 138.492188 177.160156 138.007812 175.582031 136.648438 C 175.039062 137.296875 174.273438 137.679688 174 138.601562 L 173.617188 138.601562 C 173.296875 137.296875 173.242188 135.992188 174.601562 135.5 C 176.128906 134.574219 176.777344 137.023438 178.140625 137.023438 L 178.140625 137.242188 C 181.683594 137.84375 184.617188 135.554688 187.941406 134.902344 L 188.105469 135.066406 " fill-opacity="1" fill-rule="nonzero"/><path fill="#fbcbb0" d="M 179.5 150.359375 C 180.484375 152.53125 182.222656 154.492188 183.207031 156.449219 C 186.308594 159.769531 191.484375 162.273438 195.945312 160.75 C 199.160156 159.441406 202.699219 158.082031 205.203125 155.855469 C 209.019531 159.933594 205.640625 166.082031 204.222656 170.542969 C 204.222656 176.148438 205.203125 182.730469 202.644531 187.953125 C 199.652344 191.167969 197.527344 194.863281 194.96875 198.34375 C 190.28125 197.804688 186.089844 197.914062 181.683594 196.773438 C 180.644531 194.644531 178.25 193.339844 177.921875 190.730469 C 177.160156 190.566406 177.324219 189.425781 176.339844 189.75 C 175.039062 191.761719 173.351562 194.15625 170.683594 194.050781 C 167.140625 192.902344 163.601562 189.804688 161.640625 186.976562 C 161.042969 185.992188 162.078125 184.53125 161.097656 183.875 C 161.152344 183.546875 161.207031 183.273438 161.476562 183.058594 C 162.242188 183.765625 163.054688 184.3125 164.199219 184.039062 C 166.871094 182.457031 165.996094 179.027344 168.117188 177.015625 C 169.429688 174.734375 169.917969 171.25 173.023438 170.542969 C 174.765625 168.527344 174.382812 165.753906 175.964844 163.6875 C 177.652344 162.921875 181.027344 163.90625 181.683594 161.34375 C 181.847656 161.34375 182.167969 161.398438 182.222656 161.132812 C 181.792969 160.53125 182.277344 158.789062 181.847656 157.808594 C 180.265625 155.582031 180.210938 152.695312 178.90625 150.359375 L 179.5 150.359375 " fill-opacity="1" fill-rule="nonzero"/><path fill="#83a583" d="M 278.722656 155.855469 C 279.050781 164.773438 281.171875 173.859375 280.679688 181.535156 C 272.292969 180.550781 264.179688 178.816406 255.953125 177.617188 C 251.109375 176.039062 246.808594 175.054688 241.472656 174.679688 C 237.605469 167.878906 230.253906 163.359375 227.3125 155.855469 C 234.773438 155.855469 242.941406 154.871094 250.289062 156.230469 C 254.375 156.613281 258.511719 155.800781 262.222656 154.652344 C 267.613281 155.417969 273.332031 155.691406 278.722656 155.855469 " fill-opacity="1" fill-rule="nonzero"/><path fill="#cda58f" d="M 128.527344 171.523438 C 129.511719 175.109375 133.707031 172.554688 135.773438 175.21875 C 138.714844 174.625 140.132812 177.667969 142.855469 175.4375 C 146.554688 176.417969 150.640625 174.734375 154.019531 173.101562 C 149.878906 176.910156 145.46875 180.066406 143.457031 185.234375 C 142.417969 188.609375 138.824219 189.152344 135.773438 189.371094 C 129.789062 189.914062 125.265625 194.917969 118.949219 195.246094 C 117.855469 195.464844 117.480469 196.226562 116.550781 196.984375 C 116.496094 197.804688 116.496094 198.671875 117.371094 199.164062 C 120.09375 200.03125 123.738281 198.835938 125.96875 200.90625 C 127.988281 201.667969 131.09375 201.011719 133.433594 201.503906 C 132.996094 203.082031 133.652344 205.472656 132.070312 206.183594 C 130.929688 210.265625 130.4375 215.050781 128.746094 219.132812 C 125.703125 219.296875 121.722656 218.804688 118.347656 218.152344 C 114.046875 218.535156 108.109375 219.242188 104.625 217.550781 C 101.628906 217.496094 98.09375 218.316406 95.589844 218.914062 C 93.351562 219.460938 90.574219 220.328125 87.960938 219.734375 C 88.179688 212.164062 85.839844 204.769531 87.148438 197.96875 C 90.355469 198.890625 92.429688 195.464844 95.589844 196.390625 C 98.3125 196.71875 99.832031 196.117188 102.066406 194.644531 C 106.910156 194.535156 110.996094 192.035156 115.023438 190.511719 L 115.023438 190.128906 C 118.074219 187.351562 122.761719 187.953125 125.804688 185.453125 C 124.175781 183.273438 129.84375 181.808594 126.789062 179.355469 C 127.441406 177.179688 127.277344 175.054688 126.1875 173.101562 L 124.011719 170.761719 C 125.320312 170.214844 126.023438 170.867188 127.167969 170.761719 L 128.527344 171.523438 " fill-opacity="1" fill-rule="nonzero"/><path fill="#404040" d="M 158.917969 183.058594 C 158.320312 183.546875 158.539062 184.46875 157.71875 184.851562 L 157.9375 185.015625 C 149.011719 198.726562 136.804688 216.683594 147.375 233.226562 C 149.332031 235.726562 151.078125 238.503906 153.636719 240.082031 L 154.238281 242.039062 C 152.929688 242.3125 151.078125 241.332031 149.714844 242.417969 C 149.660156 240.191406 147.699219 238.175781 146.554688 236.382812 C 142.691406 232.515625 136.914062 231.046875 131.25 231.265625 C 130.820312 231.703125 130.164062 231.703125 129.734375 231.265625 C 127.933594 229.035156 129.734375 226.316406 129.734375 223.8125 C 130.4375 220.984375 131.632812 218.316406 132.238281 215.378906 C 133.378906 216.464844 133.160156 218.589844 135.015625 219.296875 C 136.96875 217.769531 135.398438 214.886719 135.609375 212.65625 C 134.300781 208.03125 135.125 203.628906 136.59375 199.164062 C 137.738281 196.828125 138.769531 194.484375 140.296875 192.308594 C 141 193.722656 141.109375 195.246094 142.472656 196.609375 C 143.019531 197.914062 141.984375 199.328125 143.457031 200.140625 C 144.378906 200.523438 144.105469 199.382812 144.816406 199.164062 C 146.234375 195.027344 145.359375 190.894531 145.578125 185.992188 C 146.882812 184.039062 147.648438 182.347656 148.902344 180.339844 C 152.875 176.910156 156.140625 173.75 160.660156 170.925781 C 160.113281 174.296875 162.132812 180.285156 158.917969 183.058594 " fill-opacity="1" fill-rule="nonzero"/><path fill="#404040" d="M 242.613281 180.550781 C 244.140625 181.644531 245.664062 183.820312 244.195312 185.617188 C 238.96875 191.058594 230.582031 190.566406 223.609375 192.691406 C 205.804688 197.3125 195.835938 215.917969 189.304688 231.648438 C 187.503906 237.523438 185.054688 243.726562 183.804688 250.09375 C 183.75 251.777344 183.152344 253.738281 182.824219 255.535156 C 181.464844 255.152344 179.609375 253.574219 178.140625 252.816406 C 178.742188 245.742188 181.410156 238.613281 182.660156 232.03125 C 185.273438 220.710938 190.125 209.71875 196.765625 200.523438 C 201.828125 191.707031 207.925781 184.851562 216.75 180.121094 C 224.371094 176.746094 235.480469 174.515625 242.613281 180.550781 " fill-opacity="1" fill-rule="nonzero"/><path fill="#cda58f" d="M 256.941406 179.738281 C 264.398438 180.878906 271.75 182.183594 279.097656 183.492188 C 268.753906 184.6875 259.390625 189.425781 249.09375 191.332031 C 248.277344 186.539062 246.480469 181.371094 242.996094 177.777344 L 242.449219 176.636719 C 247.355469 177.34375 252.308594 178.160156 256.941406 179.738281 " fill-opacity="1" fill-rule="nonzero"/><path fill="#f7996d" d="M 278.496094 219.617188 C 277.195312 218.273438 274.304688 218.960938 272.429688 218.523438 C 269.433594 218.25 267.527344 220.59375 264.207031 219.5 C 260.71875 218.46875 257.292969 218.46875 253.644531 218.523438 C 255.929688 210.527344 251.191406 204.21875 250.867188 196.378906 L 250.101562 193.226562 C 258.050781 191.429688 265.460938 188.378906 273.410156 186.582031 C 274.714844 186.910156 275.480469 186.042969 276.734375 185.769531 C 278.308594 186.152344 279.886719 185.277344 281.46875 185.007812 C 282.15625 196.394531 280.859375 207.570312 279.449219 218.613281 " fill-opacity="1" fill-rule="nonzero"/><path fill="#404040" d="M 277.152344 258.402344 C 277.207031 263.625 277.644531 268.683594 278.300781 273.695312 C 273.78125 274.945312 268.664062 274.726562 263.976562 273.90625 C 257.335938 272.875 249.496094 272.492188 242.25 273.476562 C 243.832031 268.902344 243.832031 264.328125 247.3125 260.578125 C 248.238281 257.800781 248.566406 253.941406 247.53125 250.945312 C 248.457031 247.519531 249.652344 244.964844 250.253906 241.371094 C 253.792969 234.566406 252.328125 227.445312 253.792969 220.207031 C 259.839844 218.628906 264.742188 223.304688 270.457031 220.582031 C 271.488281 220.582031 272.691406 219.714844 273.617188 220.582031 C 275.085938 219.660156 277.152344 221.941406 279.117188 220.582031 " fill-opacity="1" fill-rule="nonzero"/><path fill="#196f82" d="M 184.1875 199.921875 C 187.339844 200.578125 190.0625 200.25 193.222656 200.90625 C 186.746094 210.75 182.058594 222.507812 179.125 234.421875 C 177.761719 231.539062 177.324219 228.324219 177.761719 224.789062 C 178.03125 222.671875 178.632812 220.109375 179.5 217.933594 C 179.445312 217.175781 178.960938 216.300781 178.140625 216.191406 C 176.558594 216.464844 176.019531 218.207031 175.199219 219.296875 C 170.574219 227.457031 167.085938 237.742188 168.9375 247.914062 C 167.359375 248.132812 167.960938 246.335938 167.523438 245.578125 C 164.035156 232.84375 164.472656 218.75 169.480469 206.5625 C 169.917969 205.417969 168.9375 204.988281 168.117188 204.605469 C 161.152344 210.914062 158.917969 219.460938 158.699219 228.707031 C 158.644531 233.664062 157.664062 238.722656 158.320312 244.21875 C 158.15625 244.21875 157.828125 244.164062 157.71875 244.382812 C 155.761719 243.234375 156.742188 240.839844 155.378906 239.105469 C 153.691406 238.121094 154.667969 236.054688 153.800781 234.421875 C 153.800781 228.707031 154.402344 223.046875 155.597656 217.339844 C 156.523438 215.160156 156.796875 212.65625 158.320312 210.695312 C 158.539062 210.046875 158.101562 209.5 157.554688 209.335938 C 155.542969 208.6875 154.832031 210.476562 153.800781 211.460938 C 150.421875 215.652344 147.699219 220.820312 146.773438 226.371094 C 143.128906 211.460938 151.835938 198.234375 159.683594 186.429688 C 163.328125 196.984375 175.089844 197.695312 184.1875 199.921875 " fill-opacity="1" fill-rule="nonzero"/><path fill="#404040" d="M 246.753906 191.707031 C 246.261719 191.652344 245.609375 191.707031 245.554688 192.308594 C 245.335938 193.121094 246.097656 193.613281 246.917969 193.667969 L 247.511719 193.449219 C 248.820312 197.695312 249.640625 202.480469 250.671875 207 C 254.59375 217.660156 248.332031 228.761719 241.253906 236.164062 C 238.367188 240.839844 239.78125 246.226562 242.613281 250.253906 C 242.996094 251.292969 244.789062 251.128906 244.195312 252.214844 C 244.304688 253.628906 246.425781 252.707031 245.9375 254.390625 C 246.046875 256.40625 245.882812 258.039062 245.390625 260.046875 C 239.726562 265.925781 242.832031 275.667969 234.609375 279.476562 C 233.085938 279.695312 231.941406 280.78125 230.253906 280.617188 L 229.871094 281 C 220.394531 283.117188 208.691406 283.609375 199.324219 284.152344 C 197.417969 284.316406 198.339844 282.304688 197.527344 281.21875 C 194.148438 275.832031 189.46875 271.148438 184.40625 267.289062 C 189.578125 269.953125 192.738281 275.066406 197.910156 277.675781 C 199.160156 277.675781 200.523438 278.550781 201.664062 277.675781 C 202.753906 276.480469 202.753906 274.582031 202.425781 273 C 200.304688 269.84375 197.308594 267.289062 194.585938 264.785156 C 201.992188 262.769531 207.054688 269.515625 213.589844 271.039062 C 214.574219 270.390625 216.476562 270.117188 216.367188 268.484375 C 216.75 264.675781 213.863281 262.285156 213.046875 258.6875 C 216.859375 255.695312 221.867188 257.492188 225.574219 259.453125 C 228.132812 261.847656 230.199219 262.933594 232.648438 265.160156 L 234.390625 264.949219 C 234.554688 264.347656 234.28125 263.261719 233.414062 262.988281 C 229.871094 261.082031 226.933594 257.054688 222.851562 256.132812 C 220.613281 254.554688 217.507812 255.152344 215.386719 254.988281 C 214.574219 254.117188 214.410156 252.488281 214.785156 251.238281 C 215.167969 250.527344 215.441406 249.714844 216.148438 249.113281 C 220.558594 247.640625 226.277344 247.3125 229.710938 250.855469 C 231.722656 251.613281 232.976562 253.957031 233.796875 255.535156 C 234.28125 256.296875 235.917969 257.382812 236.566406 255.96875 C 235.425781 251.292969 231.074219 249.605469 227.53125 246.9375 C 225.675781 246.0625 223.171875 245.953125 221.269531 245.742188 C 220.230469 246.609375 219.144531 245.742188 218.109375 246.554688 C 216.695312 246.117188 215.988281 247.375 214.574219 246.9375 C 213.808594 245.523438 213.480469 244.164062 214.191406 242.636719 C 219.472656 243.074219 225.027344 240.839844 230.253906 243.019531 C 231.996094 241.824219 235.207031 245.632812 235.753906 242.039062 C 235.261719 241.769531 234.117188 241.660156 233.632812 240.839844 L 233.414062 241.058594 C 230.144531 239.699219 228.398438 237.632812 225.785156 235.5625 C 224.316406 233.875 225.949219 232.84375 226.550781 231.265625 C 227.367188 223.15625 232.324219 214.347656 239.890625 211.679688 C 240.707031 211.078125 242.613281 212.21875 242.613281 210.476562 C 240.761719 208.03125 236.621094 208.03125 233.632812 208.742188 C 224.917969 213.148438 217.296875 220.382812 212.445312 229.523438 L 211.46875 230.285156 C 209.019531 228.058594 210.160156 223.703125 209.886719 221.09375 C 211.414062 212.328125 213.425781 204.550781 218.925781 197.367188 C 227.257812 192.253906 239.398438 195.082031 245.9375 186.976562 C 246.046875 188.664062 247.566406 190.128906 246.753906 191.707031 " fill-opacity="1" fill-rule="nonzero"/><path fill="#000000" d="M 143.457031 195.410156 C 143.074219 194.375 142.472656 193.285156 142.636719 192.308594 C 142.09375 192.089844 142.09375 191.871094 141.65625 191.488281 C 141.820312 190.402344 142.855469 189.695312 143.457031 188.769531 L 143.457031 195.410156 " fill-opacity="1" fill-rule="nonzero"/><path fill="#584e7e" d="M 134.035156 199.164062 C 132.941406 198.726562 131.578125 199.21875 130.492188 198.726562 C 129.074219 199.273438 127.824219 198.617188 126.1875 198.5625 C 124.773438 196.984375 122.160156 197.640625 120.46875 197.203125 C 126.625 197.203125 130.929688 191.113281 137.738281 191.332031 C 137.300781 193.996094 134.796875 196.5 134.035156 199.164062 " fill-opacity="1" fill-rule="nonzero"/><path fill="#f7996d" d="M 174.820312 195.027344 L 176.558594 193.066406 L 178.140625 196.007812 Z M 174.820312 195.027344 " fill-opacity="1" fill-rule="nonzero"/><path fill="#000000" d="M 207.164062 224.789062 C 206.835938 227.128906 208.144531 230.011719 209.886719 231.867188 C 209.996094 233.117188 208.910156 234.75 209.285156 236.542969 C 205.96875 242.527344 196.546875 239.316406 195.1875 247.15625 C 194.042969 252.160156 193.003906 256.945312 190.0625 261.027344 C 188.8125 259.832031 186.144531 258.851562 185.164062 257.328125 C 188.050781 241.875 192.628906 226.371094 201.664062 213.636719 C 204.988281 208.140625 209.613281 203.136719 214.785156 199.328125 C 209.941406 207.164062 207.765625 214.996094 207.164062 224.789062 " fill-opacity="1" fill-rule="nonzero"/><path fill="#000000" d="M 235.753906 210.695312 C 229 214.558594 224.753906 223.429688 223.609375 231.265625 C 223.007812 232.515625 221.976562 233.5 220.449219 232.84375 C 218.4375 231.921875 216.96875 231.539062 214.785156 230.882812 C 219.691406 222.617188 226.605469 214.292969 235.753906 210.695312 " fill-opacity="1" fill-rule="nonzero"/><path fill="#000000" d="M 163.4375 222.671875 L 163.21875 222.671875 C 162.1875 231.265625 164.035156 238.230469 165.394531 246.335938 C 163.929688 246.445312 161.859375 245.523438 160.496094 244.757812 C 160.988281 234.257812 159.628906 221.46875 165.394531 211.679688 C 164.691406 214.832031 163.546875 219.460938 163.4375 222.671875 " fill-opacity="1" fill-rule="nonzero"/><path fill="#000000" d="M 151.835938 235.5625 C 146.234375 232.195312 150.042969 225.28125 150.859375 220.492188 L 153.800781 215.214844 C 152.273438 221.632812 151.023438 228.652344 151.835938 235.5625 " fill-opacity="1" fill-rule="nonzero"/><path fill="#404040" d="M 107.347656 220.875 C 114.648438 220.929688 120.421875 220.601562 127.933594 221.257812 C 127.230469 224.628906 125.914062 228.980469 127.550781 232.03125 C 125.429688 235.945312 122.871094 239.917969 122.269531 244.59375 C 122.980469 246.773438 121.015625 248.894531 120.90625 251.238281 C 119.984375 253.738281 120.203125 257.109375 120.09375 259.289062 C 121.234375 263.535156 125.101562 267.289062 129.734375 267.886719 C 131.3125 269.953125 134.742188 269.296875 136.96875 270.820312 C 138.605469 270.929688 141.054688 271.695312 142.253906 270.0625 C 142.472656 268.210938 141.273438 266.851562 140.679688 265.324219 C 140.1875 262.386719 140.679688 258.523438 141.273438 255.75 C 140.84375 258.203125 141 262.550781 142.472656 265.324219 L 145.414062 268.101562 C 143.074219 268.757812 141.273438 271.75 140.679688 273.597656 C 130.273438 275.121094 120.039062 275.230469 110.289062 271.203125 C 103.59375 269.625 93.789062 270.007812 87.148438 271.640625 C 86.820312 263.644531 88.5625 255.640625 87.960938 247.15625 C 88.5625 238.339844 88.398438 230.121094 87.960938 222.234375 C 88.34375 221.90625 88.996094 222.125 89.542969 222.070312 C 89.488281 222.234375 89.597656 222.34375 89.707031 222.453125 C 90.792969 221.6875 92.484375 222.34375 93.625 221.851562 C 95.316406 221.796875 96.730469 221.203125 98.148438 220.492188 C 101.464844 220.65625 104.515625 218.371094 107.347656 220.875 " fill-opacity="1" fill-rule="nonzero"/><path fill="#000000" d="M 177.921875 237.144531 C 178.359375 242.148438 175.417969 246.226562 175.363281 251.238281 C 174.054688 250.800781 172.914062 249.386719 171.660156 249.277344 C 172.097656 248.785156 171.277344 248.296875 171.277344 247.695312 C 170.355469 239.917969 171.550781 231.539062 175.363281 225.007812 C 175.308594 229.144531 175.910156 233.554688 177.921875 237.144531 " fill-opacity="1" fill-rule="nonzero"/><path fill="#644434" d="M 248.875 237.902344 C 247.410156 241.332031 247.300781 245.796875 245.171875 249.277344 C 241.964844 248.078125 242.503906 244.976562 241.253906 242.417969 C 241.910156 236 248.332031 232.03125 250.835938 226.152344 C 250.234375 229.902344 250.726562 233.984375 248.875 237.902344 " fill-opacity="1" fill-rule="nonzero"/><path fill="#808080" d="M 147.375 240.839844 C 147.59375 241.769531 146.9375 242.3125 146.773438 243.019531 C 145.414062 243.019531 143.722656 241.550781 142.039062 241.277344 C 136.914062 239.050781 130.21875 239.972656 125.375 242.636719 C 125.539062 239.316406 127.988281 236.925781 129.128906 233.984375 C 130.765625 233.5 133.050781 232.570312 135.179688 233.226562 C 140.132812 233.609375 145.085938 236.488281 147.375 240.839844 " fill-opacity="1" fill-rule="nonzero"/><path fill="#000000" d="M 214.410156 233.445312 C 214.675781 232.789062 215.003906 233.28125 215.386719 233.445312 C 217.945312 233.390625 220.339844 234.96875 223.007812 235.179688 C 224.265625 237.902344 226.769531 238.613281 228.890625 240.464844 C 225.675781 240.082031 221.867188 239.535156 218.492188 240.464844 C 216.695312 240.621094 215.003906 241.167969 213.589844 239.699219 C 211.6875 238.449219 212.390625 235.945312 212.226562 234.203125 C 212.554688 233.5 213.644531 232.460938 214.410156 233.445312 " fill-opacity="1" fill-rule="nonzero"/><path fill="#404040" d="M 212.226562 247.53125 C 213.972656 248.132812 212.390625 249.332031 212.0625 250.636719 C 210.269531 253.027344 214.894531 255.535156 211.085938 256.734375 C 204.714844 257.492188 198.558594 260.429688 192.847656 262.605469 C 192.628906 262.550781 192.519531 262.714844 192.464844 262.824219 L 192.027344 262.386719 C 195.023438 258.960938 196.710938 254.554688 197.144531 249.878906 C 197.691406 249.167969 197.691406 248.296875 197.910156 247.53125 C 199.324219 245.195312 201.015625 242.582031 204.222656 242.800781 C 204.714844 242.09375 205.75 242.636719 206.351562 242.039062 C 207.65625 241.222656 209.128906 240.785156 210.269531 239.480469 C 213.863281 241.113281 208.964844 245.25 212.226562 247.53125 " fill-opacity="1" fill-rule="nonzero"/><path fill="#404040" d="M 139.316406 242.636719 C 133.707031 245.742188 127.769531 252.214844 126.953125 259.070312 L 127.933594 265.542969 L 127.550781 265.160156 C 126.515625 265.324219 125.484375 264.074219 124.609375 263.800781 C 121.34375 258.203125 122.105469 250.144531 126.1875 245.195312 C 129.566406 241.984375 135.289062 241.386719 139.316406 242.636719 " fill-opacity="1" fill-rule="nonzero"/><path fill="#404040" d="M 156.359375 245.742188 C 150.152344 246.171875 146.9375 251.941406 145.414062 257.109375 C 144.378906 260.703125 147.101562 263.152344 147.539062 266.308594 C 146.773438 266.796875 146.179688 266.144531 145.414062 266.144531 C 143.019531 263.371094 143.347656 259.34375 143.613281 255.75 C 144.707031 251.457031 147.429688 247.585938 150.695312 244.757812 C 151.78125 244.546875 152.65625 243.671875 154.019531 244 C 154.777344 244.59375 156.085938 244.757812 156.359375 245.742188 " fill-opacity="1" fill-rule="nonzero"/><path fill="#404040" d="M 142.039062 244.382812 C 136.210938 249.769531 130.875 258.257812 130.875 265.761719 C 129.238281 265.324219 129.953125 263.644531 129.511719 262.230469 C 128.527344 256.351562 133.050781 249.933594 137.957031 246.335938 C 139.316406 245.742188 140.296875 244.4375 142.039062 244.382812 " fill-opacity="1" fill-rule="nonzero"/><path fill="#404040" d="M 138.332031 261.246094 C 137.902344 264.183594 138.933594 266.6875 139.914062 268.867188 C 138.222656 269.515625 136.15625 268.648438 134.632812 267.886719 C 132.183594 265.003906 134.136719 260.976562 135.179688 258.09375 C 137.683594 253.191406 140.351562 247.585938 145.578125 244.976562 C 141.984375 249.714844 137.191406 254.390625 138.332031 261.246094 " fill-opacity="1" fill-rule="nonzero"/><path fill="#fbcbb0" d="M 195.78125 268.703125 C 197.363281 270.65625 200.523438 272.511719 200.851562 275.558594 C 199.105469 276.207031 197.363281 274.472656 195.78125 273.597656 C 191.535156 271.039062 188.652344 265.214844 183.207031 264.347656 C 182.277344 264.785156 181.082031 265.597656 180.699219 266.742188 C 185.875 271.695312 192.191406 276.644531 196.164062 283.390625 L 196.164062 284.535156 C 192.574219 283.9375 190.015625 281.648438 187.558594 278.660156 C 185.054688 275.503906 181.847656 272.238281 177.761719 270.820312 C 176.777344 271.640625 176.238281 272.78125 176.777344 273.980469 C 180.429688 277.566406 183.695312 280.890625 186.746094 284.753906 C 183.421875 284.863281 180.535156 281.539062 177.761719 279.859375 C 175.253906 278.332031 173.617188 275.175781 170.464844 274.738281 C 169.753906 275.121094 169.429688 275.558594 169.320312 276.316406 C 170.082031 277.082031 170.628906 277.894531 171.878906 277.894531 C 173.835938 280.5625 177.269531 283.171875 177.921875 286.878906 C 173.570312 286.824219 172.421875 281.867188 170.464844 278.660156 C 167.359375 272.890625 165.019531 266.742188 161.640625 261.027344 C 158.429688 257.382812 152.984375 256.679688 147.917969 257.109375 C 149.058594 253.082031 152 248.460938 156.578125 247.695312 C 160.113281 246.5 164.035156 248.625 167.523438 249.660156 C 178.085938 254.554688 187.183594 261.136719 195.78125 268.703125 " fill-opacity="1" fill-rule="nonzero"/><path fill="#f7996d" d="M 157.9375 260.429688 C 161.585938 262.441406 161.914062 267.234375 164.199219 270.445312 C 165.183594 273.21875 166.871094 275.777344 168.117188 278.496094 C 167.25 278.058594 166.707031 276.917969 165.558594 277.082031 C 164.035156 274.738281 159.792969 273.164062 159.519531 269.679688 C 159.191406 267.453125 158.046875 265.058594 155.761719 264.183594 C 153.253906 263.207031 150.640625 264.675781 149.113281 262.386719 C 147.699219 261.902344 147.808594 260.15625 147.539062 258.90625 C 151.132812 259.722656 154.722656 258.796875 157.9375 260.429688 " fill-opacity="1" fill-rule="nonzero"/><path fill="#404040" d="M 210.488281 259.886719 C 212.007812 262.605469 214.300781 265.542969 213.210938 268.867188 C 211.46875 268.757812 209.832031 266.960938 207.925781 266.523438 C 205.148438 265.105469 202.644531 262.933594 199.488281 262.386719 C 202.917969 261.410156 206.242188 259.289062 210.269531 259.289062 L 210.488281 259.886719 " fill-opacity="1" fill-rule="nonzero"/><path fill="#fbcbb0" d="M 158.917969 273.164062 C 160.878906 275.667969 162.835938 275.988281 164.800781 278.660156 C 164.527344 280.34375 162.625 281.492188 161.476562 282.578125 C 158.265625 282.359375 156.085938 284.152344 154.402344 286.714844 C 153.363281 288.722656 152.710938 291.226562 150.859375 292.585938 L 150.316406 292.210938 C 150.207031 289.867188 149.496094 287.089844 150.859375 284.917969 C 151.132812 282.414062 154.558594 279.695312 152.4375 276.917969 C 149.386719 276.753906 146.5 280.453125 145.414062 282.953125 C 145.359375 282.195312 144.542969 281.492188 145.796875 281.21875 C 146.828125 277.511719 150.75 276.097656 151.835938 272.183594 C 152.273438 270.609375 150.421875 270.609375 149.714844 269.84375 C 147.59375 269.03125 146.125 271.859375 144.976562 273.164062 C 143.128906 276.589844 141.875 281.648438 143.832031 285.136719 L 143.832031 285.515625 C 141.109375 281.21875 141.984375 275.066406 144.816406 271.203125 C 146.335938 269.734375 148.410156 268.8125 150.695312 268.703125 C 151.351562 268.15625 152.273438 268.15625 153.039062 267.886719 C 154.347656 267.777344 156.085938 264.730469 156.960938 267.507812 C 157.179688 269.570312 158.210938 271.585938 158.917969 273.164062 " fill-opacity="1" fill-rule="nonzero"/><path fill="#b2785f" d="M 146.390625 275.941406 C 146.390625 275.558594 147.917969 272.671875 149.332031 271.804688 C 149.222656 273.164062 147.375 274.582031 146.390625 275.941406 " fill-opacity="1" fill-rule="nonzero"/><path fill="#ffffff" d="M 183.042969 276.917969 L 185.601562 279.640625 L 183.042969 276.917969 " fill-opacity="1" fill-rule="nonzero"/><path fill="#b2785f" d="M 147.753906 290.03125 C 145.90625 289.160156 147.59375 286.167969 147.375 284.371094 C 148.300781 282.898438 148.574219 281.328125 150.097656 280.453125 C 148.574219 283.335938 147.15625 286.496094 147.753906 290.03125 " fill-opacity="1" fill-rule="nonzero"/></svg>